<svg id="Layer_1" data-name="Layer 1" xmlns="http://www.w3.org/2000/svg" viewBox="0 0 403 497.08"><defs><style>.cls-1{fill:#46af89;}.cls-2{fill:#fae8d0;}</style></defs><path class="cls-1" d="M281.18,518.78c-6.45,18.11-13.45,30.8-17,37.79a8.19,8.19,0,0,0,14.37,7.85c41.88-70.65,102.48-125.33,153.65-189,26.21-32.62,83.58-106.09,36.22-144.16C447,214,422.33,228.46,405,243.93c-13.47,11.9-24.94,26.85-35,41.65.66-31.59-6.67-92.75-45-101.72-42.12-9.8-55,46.74-53.88,76.89,1.9,52.38,25.34,90.71,26.92,153.39A290.24,290.24,0,0,1,281.18,518.78Zm84.66-199.91h0C365.72,319.27,365.73,319.07,365.84,318.87Zm-71.11-95.82c11.49-28.66,35-22.84,45.25,2.49,11.35,28,13.66,60.34,8,85.88-.48,2.49-.6,3.08-.83,4a11,11,0,0,0,20.06,8.21c16.58-25.3,30.35-50.19,48.51-68,14.65-14.56,37.93-29.86,53.12-6.38,8,12.35,7.11,29.13,2.87,43.41-8.71,29.74-30.76,57-50.49,80.49-22,26.24-46,50.72-69.54,75.51-49.21,52-48,55.66-46.79,51.19,9.27-34.63,11.82-62.57,10.51-94.82C313,347.57,272.29,279.59,294.73,223.05Z" transform="translate(-83.6 -182.73)"/><path class="cls-2" d="M86.36,386.16C80.6,406.88,84.44,429,92.57,449c19.19,46.21,66.22,92.49,68.32,160.32.24,20.53-4,40.24-14.67,57.19a8.81,8.81,0,0,0,14.13,10.38C199.16,632.8,241.05,584,266.1,529.11c15.23-33.23,24.92-68.85,24.85-105,0-11.58-1.36-22.73-6.53-33-8.74-17.22-26-24.67-39-21.76a36.12,36.12,0,0,0-4.74,1.19c-7.44,2.58-13.09,7.16-18.41,12.77-9.3,10.17-19,27.72-24.78,39.67a244.58,244.58,0,0,0-15.9,43.16c-1.55-24.88-8.27-52-20.75-74.23-5.26-9.29-11.59-18.17-20.26-24.41C126,357.09,105.79,356.37,94,371.11A46,46,0,0,0,86.36,386.16ZM123.91,368c14.32,2.71,24.06,14.48,31.52,26.93,9.95,16.65,16.76,36.52,20.07,56.19,1.31,7.17,1.76,12.63,2.34,18.75.68,11.37.41,8,2.13,13.16.33-.43.79-.92,1.4-1.57,1.87-2.05,1.83-2.27,7.08-13.23a503.57,503.57,0,0,1,36.47-63.83c6.5-9.54,16.78-21.61,28.17-19.57,7.06,1.17,13.2,7.18,16.28,13.63,3.67,7.66,4.37,16.85,4.23,25.36a220.85,220.85,0,0,1-7.12,49.74c-1.82,6.45.31-.32-4,13.83a296.2,296.2,0,0,1-13.39,33.68c-19.65,40.68-42.44,72-73.17,109.55,4.59-37.76-8.24-74.88-26.66-107.92C125.47,480.69,99.68,453.79,94.08,417,90.13,391,98,363.42,123.91,368Z" transform="translate(-83.6 -182.73)"/></svg>