<svg id="Layer_1" data-name="Layer 1" xmlns="http://www.w3.org/2000/svg" viewBox="0 0 272.45 254.14"><defs><style>.cls-1{fill:#46af89;}.cls-2{fill:#406eb2;}</style></defs><path class="cls-1" d="M411.43,289.41c-34.63-4.7-62.67,16.5-75.35,41a98,98,0,0,0-10.48,41.1c-22-44.3-76.81-80.7-113.75-54.5-25.85,18.4-25.12,51-13.29,75,31.09,62.9,126.06,82,160.69,142.4,1.58,2.8,7.68,1.5,7.19-1.6-8.05-59,39.5-110.6,65.47-145.3,9.76-13,18.66-26.9,21.34-42.1C457.52,321.11,443.62,293.81,411.43,289.41Zm29.63,69.3c-10.24,23.2-32.8,43.7-55.6,79.4-16,25.1-27.68,52.6-27.68,80.9-32.18-42.1-92.9-62.8-131.18-100.9-48.53-48.2-27.07-97.3,6.7-103.1,17.44-3,35,5.5,47.55,14.7,24,17.6,40,42,46,67.9q.92,6.6,2.19,13.2c.37,2,2.32,2.6,4.15,2.2,1.95,0,3.65-1,3.41-3a102.76,102.76,0,0,0-2.32-13.6c-2.56-18.4-2.07-36.9,4.76-54.7,9.75-25.1,35.36-51.3,71.32-46S451.3,335.31,441.06,358.71Z" transform="translate(-181.55 -281.81)"/><path class="cls-2" d="M402.3,282.47c-34.62-4.7-62.66,16.5-75.34,41a97.88,97.88,0,0,0-10.49,41.1c-21.94-44.3-76.81-80.7-113.75-54.5-25.85,18.4-25.11,51-13.29,75,31.09,62.9,126.07,82,160.69,142.4,1.59,2.8,7.68,1.5,7.2-1.6-8.05-59,39.5-110.6,65.47-145.3,9.75-13,18.65-26.9,21.33-42.1C448.39,314.17,434.49,286.87,402.3,282.47Zm29.63,69.3c-10.24,23.2-32.8,43.7-55.59,79.4-16,25.1-27.68,52.6-27.68,80.9-32.19-42.1-92.9-62.8-131.19-100.9-48.52-48.2-27.06-97.3,6.71-103.1,17.43-3,35,5.5,47.55,14.7,24,17.6,40,42,46,67.9q.92,6.6,2.2,13.2c.36,2,2.31,2.6,4.14,2.2,2,0,3.66-1,3.42-3a102.76,102.76,0,0,0-2.32-13.6c-2.56-18.4-2.07-36.9,4.75-54.7,9.76-25.1,35.36-51.3,71.33-46S442.17,328.37,431.93,351.77Z" transform="translate(-181.55 -281.81)"/></svg>